<svg width="13" height="44" viewBox="0 0 13 44" fill="none" xmlns="http://www.w3.org/2000/svg">
<g clip-path="url(#clip0_1_981)">
<path fill-rule="evenodd" clip-rule="evenodd" d="M12 25.9C12 26.5 11.5 27 10.9 27H2.1C1.5 27 1 26.5 1 25.9V18C1 17.5 1.5 17 2.1 17H11C11.6 17 12.1 17.5 12.1 18.1V25.9H12ZM6.5 14C7.7 14 8.6 14.9 8.8 16H4.2C4.4 14.9 5.3 14 6.5 14ZM10.9 16H9.8C9.6 14.3 8.2 13 6.5 13C4.8 13 3.4 14.3 3.2 16H2.1C0.9 16 0 16.9 0 18.1V26C0 27.1 0.9 28 2.1 28H11C12.1 28 13.1 27.1 13.1 25.9V18C13 16.9 12.1 16 10.9 16Z" fill="white"/>
</g>
<defs>
<clipPath id="clip0_1_981">
<rect width="13" height="44" fill="white"/>
</clipPath>
</defs>
</svg>
